<svg width="29" height="27" viewBox="0 0 29 27" fill="none" xmlns="http://www.w3.org/2000/svg">
<path d="M23.3887 18.8975H10.2994C9.8095 18.8975 9.37722 18.5445 9.23398 18.0274L4.99745 2.74418H1.27342C0.65811 2.74418 0.159302 2.19377 0.159302 1.51481C0.159302 0.83584 0.65811 0.285431 1.27342 0.285431H5.8219C6.3118 0.285431 6.74408 0.638437 6.88732 1.15513L11.1238 16.4387H22.6483L26.0177 7.59038H14.4837C13.8684 7.59038 13.3696 7.03997 13.3696 6.361C13.3696 5.68204 13.8684 5.13163 14.4837 5.13163H27.694C28.0671 5.13163 28.4156 5.33781 28.6219 5.68063C28.8282 6.02345 28.8657 6.4576 28.7212 6.8373L24.4156 18.1444C24.2418 18.6007 23.8372 18.8975 23.3887 18.8975Z" fill="#55B3D2"/>
<path d="M9.35233 26.4479C10.4353 26.4479 11.3132 25.4792 11.3132 24.2842C11.3132 23.0893 10.4353 22.1205 9.35233 22.1205C8.26938 22.1205 7.39148 23.0893 7.39148 24.2842C7.39148 25.4792 8.26938 26.4479 9.35233 26.4479Z" fill="#55B3D2"/>
<path d="M23.9029 26.4479C24.9858 26.4479 25.8637 25.4792 25.8637 24.2842C25.8637 23.0893 24.9858 22.1205 23.9029 22.1205C22.8199 22.1205 21.942 23.0893 21.942 24.2842C21.942 25.4792 22.8199 26.4479 23.9029 26.4479Z" fill="#55B3D2"/>
</svg>
