<svg width="32" height="23" viewBox="0 0 32 23" fill="none" xmlns="http://www.w3.org/2000/svg">
<path d="M28.8264 1.61055H26.9311V1.40532C26.9311 1.23861 26.866 1.07928 26.7511 0.964947C26.6362 0.850432 26.4811 0.791388 26.3242 0.800775L15.0001 1.49368L3.67602 0.800775C3.51825 0.791388 3.36386 0.850432 3.24907 0.964947C3.13421 1.07934 3.0691 1.23867 3.0691 1.40532V1.61055H1.1738C0.857003 1.61055 0.600098 1.88173 0.600098 2.21613V21.5595C0.600098 21.8939 0.857003 22.1651 1.1738 22.1651H28.8264C29.1432 22.1651 29.4001 21.8939 29.4001 21.5595V2.21613C29.4001 1.88173 29.1432 1.61055 28.8264 1.61055ZM15.5738 2.67183L25.7837 2.04711V18.6715L15.5738 19.2962V2.67183ZM4.21651 2.04705L14.4264 2.67183V19.2962L4.21651 18.6714V2.04705ZM28.2527 20.9539H1.74751V2.82171H3.0691V19.2429C3.0691 19.5637 3.30615 19.8289 3.60958 19.8475L14.9669 20.5425C14.978 20.5431 14.9889 20.5435 14.9999 20.5435C14.9999 20.5435 15 20.5435 15 20.5435H15.0001H15.0002C15.0002 20.5435 15.0003 20.5435 15.0003 20.5435C15.0113 20.5435 15.0224 20.5431 15.0333 20.5425L26.3906 19.8475C26.694 19.8289 26.9311 19.5637 26.9311 19.2429V2.82171H28.2527V20.9539Z" fill="#4B5053"/>
<path d="M12.8934 4.16022L8.88823 3.91514C8.57177 3.89534 8.30064 4.15083 8.28222 4.48463C8.26392 4.81854 8.50551 5.10492 8.82174 5.1243L12.8269 5.36937C12.8382 5.3701 12.8495 5.3704 12.8607 5.3704C13.1623 5.3704 13.4152 5.12188 13.433 4.79989C13.4513 4.46597 13.2097 4.17954 12.8934 4.16022Z" fill="#4B5053"/>
<path d="M29.914 4.94597L30.9017 5.00641C30.913 5.00713 30.9243 5.00744 30.9354 5.00744C31.237 5.00744 31.4899 4.75891 31.5077 4.43692C31.526 4.10301 31.2844 3.81663 30.9682 3.79731L29.9805 3.73687C29.6626 3.7175 29.3929 3.97257 29.3745 4.30636C29.3562 4.64021 29.5977 4.92665 29.914 4.94597Z" fill="#4B5053"/>
<path d="M12.8934 6.94014L5.98027 6.51714C5.66238 6.49782 5.39268 6.75283 5.37427 7.08663C5.35596 7.42054 5.59749 7.70692 5.91378 7.7263L12.8269 8.1493C12.8382 8.15002 12.8495 8.15033 12.8607 8.15033C13.1623 8.15033 13.4152 7.9018 13.4329 7.57981C13.4513 7.24589 13.2098 6.95946 12.8934 6.94014Z" fill="#4B5053"/>
<path d="M12.8934 9.77753L5.98027 9.35453C5.66238 9.33534 5.39268 9.59022 5.37427 9.92402C5.35596 10.2579 5.59749 10.5443 5.91378 10.5637L12.8269 10.9867C12.8382 10.9874 12.8495 10.9877 12.8607 10.9877C13.1623 10.9877 13.4152 10.7392 13.4329 10.4172C13.4513 10.0833 13.2098 9.79691 12.8934 9.77753Z" fill="#4B5053"/>
<path d="M12.8934 12.5578L5.98027 12.1348C5.66238 12.1156 5.39268 12.3705 5.37427 12.7043C5.35596 13.0382 5.59749 13.3246 5.91378 13.344L12.8269 13.767C12.8382 13.7677 12.8495 13.768 12.8607 13.768C13.1623 13.768 13.4152 13.5195 13.4329 13.1975C13.4513 12.8636 13.2098 12.5771 12.8934 12.5578Z" fill="#4B5053"/>
<path d="M24.1296 12.1348L19.8501 12.3967C19.5337 12.416 19.2922 12.7024 19.3106 13.0364C19.3283 13.3583 19.5811 13.6069 19.8828 13.6069C19.894 13.6069 19.9053 13.6066 19.9166 13.6059L24.1961 13.344C24.5125 13.3247 24.754 13.0382 24.7356 12.7043C24.7172 12.3705 24.4483 12.1153 24.1296 12.1348Z" fill="#4B5053"/>
<path d="M18.1492 12.5006L17.2165 12.5576C16.9002 12.5769 16.6586 12.8634 16.677 13.1973C16.6947 13.5192 16.9476 13.7678 17.2493 13.7678C17.2604 13.7678 17.2717 13.7675 17.283 13.7668L18.2157 13.7097C18.532 13.6904 18.7736 13.404 18.7553 13.07C18.7368 12.7363 18.4664 12.481 18.1492 12.5006Z" fill="#4B5053"/>
<path d="M24.1297 9.35453L17.2165 9.77753C16.9002 9.79685 16.6586 10.0833 16.677 10.4172C16.6947 10.7391 16.9476 10.9877 17.2493 10.9877C17.2604 10.9877 17.2717 10.9874 17.283 10.9867L24.1962 10.5637C24.5125 10.5444 24.754 10.2579 24.7357 9.92402C24.7173 9.59022 24.4483 9.33534 24.1297 9.35453Z" fill="#4B5053"/>
<path d="M24.1297 6.51671L17.2165 6.93971C16.9002 6.95902 16.6586 7.24546 16.677 7.57938C16.6947 7.9013 16.9476 8.14989 17.2493 8.14989C17.2604 8.14989 17.2717 8.14959 17.283 8.14886L24.1962 7.72587C24.5125 7.70655 24.754 7.42011 24.7357 7.08619C24.7173 6.75234 24.4483 6.49685 24.1297 6.51671Z" fill="#4B5053"/>
<path d="M24.1297 3.73689L17.2165 4.15989C16.9002 4.17921 16.6586 4.46565 16.677 4.79956C16.6947 5.12149 16.9476 5.37008 17.2493 5.37008C17.2604 5.37008 17.2717 5.36977 17.283 5.36905L24.1962 4.94605C24.5125 4.92673 24.754 4.64029 24.7357 4.30638C24.7173 3.97258 24.4483 3.71733 24.1297 3.73689Z" fill="#4B5053"/>
</svg>
